# xmcd CD database file
#
# Track frame offsets:
#	150
#	21372
#	46568
#	66578
#	91684
#	117195
#	134215
#	161448
#	177872
#	206835
#	235250
#	252317
#	272662
#	291095
#
# Disc length: 4177 seconds
#
# Revision: 0
# Processed by: cddbd v1.5.2PL0 Copyright (c) Steve Scherf et al.
# Submitted via: CDex 1.75
#
DISCID=cb104f0e
DTITLE=Van Morrison - The Prophet Speaks
DYEAR=2018
DGENRE=Jazz
TTITLE0=Gonna Send You Back To Where I Got You From
TTITLE1=Dimples
TTITLE2=Got to Go Where the Love Is
TTITLE3=Laughin' and Clownin'
TTITLE4=5 am Greenwich Mean Time
TTITLE5=Gotta Get You Off My Mind
TTITLE6=Teardrops
TTITLE7=I Love The Life I Live
TTITLE8=Worried Blues - Rollin And Tumblin
TTITLE9=Ain't Gonna Moan No More
TTITLE10=Love Is a Five Letter Word 
TTITLE11=Love Is Hard Work
TTITLE12=Spirit Will Provide
TTITLE13=The Prophet Speaks
EXTD=YEAR: 2018
EXTT0=
EXTT1=
EXTT2=
EXTT3=
EXTT4=
EXTT5=
EXTT6=
EXTT7=
EXTT8=
EXTT9=
EXTT10=
EXTT11=
EXTT12=
EXTT13=
PLAYORDER=
